<?xml version="1.0" encoding="UTF-8"?>
<svg id="_Слой_2" data-name="Слой 2" xmlns="http://www.w3.org/2000/svg" xmlns:xlink="http://www.w3.org/1999/xlink" viewBox="0 0 810.76 342.76">
  <defs>
    <style>
      .cls-1 {
        fill: url(#_Безымянный_градиент_11);
      }

      .cls-1, .cls-2, .cls-3, .cls-4 {
        stroke-miterlimit: 10;
      }

      .cls-1, .cls-2, .cls-4 {
        stroke: #021136;
      }

      .cls-1, .cls-3 {
        stroke-width: 5.67px;
      }

      .cls-5 {
        fill: #fff;
      }

      .cls-6 {
        fill: #0882b6;
      }

      .cls-2 {
        stroke-width: 13.76px;
      }

      .cls-2, .cls-3, .cls-4 {
        fill: none;
      }

      .cls-7 {
        fill: #689a7f;
      }

      .cls-3 {
        stroke: #0882b6;
      }

      .cls-4 {
        stroke-width: 5.69px;
      }

      .cls-8 {
        fill: #021136;
      }
    </style>
    <linearGradient id="_Безымянный_градиент_11" data-name="Безымянный градиент 11" x1="29.38" y1="148.88" x2="781.38" y2="148.88" gradientUnits="userSpaceOnUse">
      <stop offset="0" stop-color="#076f93"/>
      <stop offset=".02" stop-color="#06668b"/>
      <stop offset=".09" stop-color="#054c70"/>
      <stop offset=".17" stop-color="#03365a"/>
      <stop offset=".26" stop-color="#03254a"/>
      <stop offset=".38" stop-color="#02193e"/>
      <stop offset=".54" stop-color="#021237"/>
      <stop offset="1" stop-color="#021136"/>
    </linearGradient>
  </defs>
  <g id="_Слой_1-2" data-name="Слой 1">
    <polygon class="cls-5" points="727.65 6.88 82.55 6.88 6.6 72.26 6.6 218.5 103.55 335.88 706.6 335.88 803.6 218.5 803.6 72.26 727.65 6.88"/>
    <polygon class="cls-1" points="715.38 23.88 95.38 23.88 29.38 78.88 29.38 218.88 75.38 273.88 735.38 273.88 781.38 218.88 781.38 78.88 715.38 23.88"/>
    <g>
      <polyline class="cls-4" points="751.22 282.23 751.2 282.25 749.37 283.88 62.33 283.88 56.78 278.91"/>
      <polygon class="cls-2" points="727.93 6.88 82.83 6.88 6.88 72.26 6.88 218.5 103.83 335.88 706.88 335.88 803.88 218.5 803.88 72.26 727.93 6.88"/>
    </g>
    <g>
      <circle class="cls-3" cx="405.38" cy="148.88" r="101"/>
      <circle class="cls-3" cx="405.38" cy="148.88" r="86"/>
    </g>
    <g>
      <circle class="cls-3" cx="154.24" cy="148.88" r="101"/>
      <circle class="cls-3" cx="154.24" cy="148.88" r="86"/>
    </g>
    <g>
      <circle class="cls-3" cx="656.52" cy="148.88" r="101"/>
      <circle class="cls-3" cx="656.52" cy="148.88" r="86"/>
    </g>
    <polygon class="cls-7" points="325.61 216.96 326.32 217.88 325.61 217.88 325.61 216.96"/>
    <polygon class="cls-7" points="388.61 216.97 388.61 217.88 387.91 217.88 388.61 216.97"/>
    <path class="cls-6" d="M288.42,205.88v-44h17.25v-35.5h-52v35.5h14.75v44h-21.5v11.08l.72,.92,26.29,34h8.98l26.31-34,.7-.91v-11.09h-21.5Zm-10,42l-23.5-30h47l-23.5,30Z"/>
    <path class="cls-6" d="M541.42,205.88v-44h17.25v-35.5h-52v35.5h14.75v44h-21.5v11.08l.72,.92,26.29,34h8.98l26.31-34,.7-.91v-11.09h-21.5Zm-10,42l-23.5-30h47l-23.5,30Z"/>
    <path class="cls-5" d="M138.75,170.61c.73,10.34,5.44,14.67,13.78,14.67,6.71,0,9.97-3.01,9.97-8.46,0-6.02-4.17-9.59-20.84-14.29-33.71-9.41-42.05-23.7-42.05-40.63,0-28.4,22.48-42.51,52.57-42.51s52.75,14.11,54.02,42.7h-42.23c-.18-6.96-3.26-12.98-11.06-12.98-4.89,0-8.52,2.45-8.52,6.77,0,6.02,4.35,8.46,20.12,12.98,34.26,9.78,44.41,21.82,44.41,43.07,0,31.22-25.56,43.26-56.92,43.26-36.8,0-54.74-19.37-56.01-44.58h42.78Z"/>
    <path class="cls-5" d="M356.92,88.31h63.09c31.28,0,41.02,15.64,41.02,30.59,0,12.51-7.13,21.03-18.6,24.85,9.73,3.13,21.9,10.78,21.9,27.81,0,19.64-13.56,35.98-45.36,35.98h-62.05V88.31Zm49.88,45.71c8.34,0,10.78-3.65,10.78-10.08s-3.48-10.08-10.95-10.08h-6.95v20.16h7.13Zm-7.13,47.97h6.95c6.26,0,11.64-2.26,11.64-11.99,0-7.99-4-11.82-11.99-11.82h-6.6v23.81Z"/>
    <path class="cls-5" d="M661.42,119.07c-.18-4.33-1.09-9.03-6.34-9.03-5.62,0-7.79,6.4-8.16,24.08,6.16-4.33,13.23-6.77,23.2-6.77,22.48,.19,35.71,15.42,35.71,39.5,0,26.71-14.68,47.78-51.12,47.78-39.33,0-52.2-25.02-52.2-63.76,0-47.59,21.21-67.15,52.75-67.15,39.7,0,46.95,23.7,47.13,35.36h-40.96Zm-.36,50.79c0-10.16-1.63-15.42-7.07-15.42-4.53,0-7.43,2.63-7.43,16.18,0,12.41,2.54,17.49,7.25,17.49,5.08,0,7.25-4.14,7.25-18.25Z"/>
    <g>
      <path class="cls-8" d="M185.41,314.54c.17,2.96,1.29,4.2,3.28,4.2,1.6,0,2.37-.86,2.37-2.42,0-1.72-.99-2.75-4.96-4.1-8.02-2.7-10-6.79-10-11.64,0-8.14,5.35-12.18,12.51-12.18s12.55,4.04,12.85,12.23h-10.05c-.04-1.99-.78-3.72-2.63-3.72-1.16,0-2.03,.7-2.03,1.94,0,1.72,1.04,2.42,4.79,3.72,8.15,2.8,10.57,6.25,10.57,12.34,0,8.95-6.08,12.4-13.54,12.4-8.75,0-13.02-5.55-13.32-12.77h10.18Z"/>
      <path class="cls-8" d="M219.52,320.2l-.73,6.14h-10.87l7.12-36.97h15.48l7.33,36.97h-11.43l-.86-6.14h-6.04Zm4.53-10.13c-.3-2.86-.99-8.35-1.47-12.61h-.26c-.43,4.1-.91,8.68-1.42,12.61h3.15Z"/>
      <path class="cls-8" d="M244.92,326.34v-36.97h12.68c2.89,13.26,3.97,18.59,4.18,19.73h.26c-.3-4.42-.52-11.26-.52-16.44v-3.29h10.22v36.97h-12.25c-3.36-15.36-4.18-19.13-4.53-20.59h-.17c.35,4.63,.3,10.78,.3,16.82v3.77h-10.18Z"/>
      <path class="cls-8" d="M308.18,313.25c-.86,9.05-5.22,14.07-13.97,14.07-10.95,0-14.23-9.05-14.23-19.35s4.01-19.56,14.58-19.56,13.28,7.92,13.54,13.74h-10.95c-.17-2.91-.82-4.53-2.54-4.53-2.16,0-3.02,2.8-3.02,10.35,0,6.9,.82,10.02,2.89,10.02s2.54-2.05,2.76-4.74h10.95Z"/>
      <path class="cls-8" d="M321.84,298.8h-7.2v-9.43h25.31v9.43h-7.07v27.54h-11.04v-27.54Z"/>
      <path class="cls-8" d="M358.19,289.37v24.79c0,2.32,.65,3.88,2.37,3.88,1.55,0,2.29-1.51,2.29-3.88v-24.79h11.17v23.5c0,10.24-5,14.44-13.63,14.44s-13.28-4.37-13.28-14.5v-23.44h11.08Z"/>
      <path class="cls-8" d="M392,320.2l-.73,6.14h-10.87l7.12-36.97h15.48l7.33,36.97h-11.43l-.86-6.14h-6.04Zm4.53-10.13c-.3-2.86-.99-8.35-1.47-12.61h-.26c-.43,4.1-.91,8.68-1.42,12.61h3.15Z"/>
      <path class="cls-8" d="M428.13,313.46v12.88h-10.69v-36.97h15.48c8.02,0,10.61,5.66,10.61,10.19,0,4.96-1.98,7.54-4.57,8.84,3.41,1.51,4.18,5.12,4.18,8.95v1.35c0,2.8-.04,6.31,.26,7.65h-10.61c-.43-1.46-.6-3.99-.6-7.38v-1.08c0-3.61-.73-4.42-2.98-4.42h-1.08Zm0-8.68h1.85c2.03,0,2.67-1.67,2.67-3.5,0-2.16-.82-3.34-2.72-3.34h-1.81v6.84Z"/>
      <path class="cls-8" d="M458.1,326.34v-12.18c0-.54,.04-1.02-.3-1.83l-9.14-22.96h12.38c1.12,4.96,2.33,9.81,3.19,14.23,1.21-5.01,2.46-10.46,3.32-14.23h11.43l-9.49,23.12c-.13,.43-.26,1.08-.26,1.72v12.13h-11.13Z"/>
    </g>
    <g>
      <path class="cls-8" d="M503.02,289.92h15.65c7.76,0,10.18,4.85,10.18,9.49,0,3.88-1.77,6.52-4.61,7.71,2.42,.97,5.43,3.34,5.43,8.62,0,6.09-3.36,11.16-11.25,11.16h-15.39v-36.97Zm12.38,14.17c2.07,0,2.67-1.13,2.67-3.12s-.86-3.13-2.72-3.13h-1.72v6.25h1.77Zm-1.77,14.88h1.72c1.55,0,2.89-.7,2.89-3.72,0-2.48-.99-3.66-2.97-3.66h-1.64v7.38Z"/>
      <path class="cls-8" d="M547.48,320.75l-.73,6.14h-10.87l7.12-36.97h15.48l7.33,36.97h-11.43l-.86-6.14h-6.04Zm4.53-10.13c-.3-2.86-.99-8.35-1.47-12.61h-.26c-.43,4.1-.91,8.68-1.42,12.61h3.15Z"/>
      <path class="cls-8" d="M582.02,315.09c.17,2.96,1.29,4.2,3.28,4.2,1.6,0,2.37-.86,2.37-2.42,0-1.72-.99-2.75-4.96-4.1-8.02-2.7-10-6.79-10-11.64,0-8.14,5.35-12.18,12.51-12.18s12.55,4.04,12.85,12.23h-10.05c-.04-1.99-.78-3.72-2.63-3.72-1.16,0-2.03,.7-2.03,1.94,0,1.72,1.04,2.43,4.79,3.72,8.15,2.8,10.57,6.25,10.57,12.34,0,8.95-6.08,12.4-13.54,12.4-8.75,0-13.02-5.55-13.32-12.77h10.18Z"/>
      <path class="cls-8" d="M628.93,312.88h-11.73v4.63h13.28l-1.16,9.38h-22.68v-36.97h22.77v9.43h-12.2v4.1h11.73v9.43Z"/>
    </g>
  </g>
</svg>